# Blender v3.0.0 OBJ File: ''
# www.blender.org
mtllib pentagob.mtl
o Circle_Circle.001
v 0.000000 0.000000 1.000000
v 0.951057 0.000000 0.309017
v 0.587785 0.000000 -0.809017
v -0.587785 0.000000 -0.809017
v -0.951056 0.000000 0.309017
v 0.000000 1.051641 1.000000
v 0.951057 1.051641 0.309017
v 0.587785 1.051641 -0.809017
v -0.587785 1.051641 -0.809017
v -0.951056 1.051641 0.309017
v 0.000000 1.051641 1.000000
v 0.951057 1.051641 0.309017
v 0.587785 1.051641 -0.809017
v -0.587785 1.051641 -0.809017
v -0.951056 1.051641 0.309017
v 0.000000 1.862052 1.000000
v 0.951057 1.862052 0.309017
v 0.587785 1.862052 -0.809017
v -0.587785 1.862052 -0.809017
v -0.951056 1.862052 0.309017
v 0.000000 2.986654 1.000000
v 0.951057 2.986654 0.309017
v 0.587785 2.986654 -0.809017
v -0.587785 2.986654 -0.809017
v -0.951056 2.986654 0.309017
v 0.000000 3.960327 1.000000
v 0.951057 3.960327 0.309017
v 0.587785 3.960327 -0.809017
v -0.587785 3.960327 -0.809017
v -0.951056 3.960327 0.309017
v 0.000000 4.674248 1.000000
v 0.951057 4.674248 0.309017
v 0.587785 4.674248 -0.809017
v -0.587785 4.674248 -0.809017
v -0.951056 4.674248 0.309017
v 0.000000 5.170682 1.000000
v 0.951057 5.170682 0.309017
v 0.587785 5.170682 -0.809017
v -0.587785 5.170682 -0.809017
v -0.951056 5.170682 0.309017
v 0.000000 6.124041 1.000000
v 0.951057 6.124041 0.309017
v 0.587785 6.124041 -0.809017
v -0.587785 6.124041 -0.809017
v -0.951056 6.124041 0.309017
v 0.000000 6.630261 1.000000
v 0.951057 6.630261 0.309017
v 0.587786 6.630261 -0.809017
v -0.587785 6.630261 -0.809017
v -0.951056 6.630261 0.309017
v 0.000001 7.311708 1.000000
v 0.951057 7.311708 0.309017
v 0.587786 7.311708 -0.809017
v -0.587785 7.311708 -0.809017
v -0.951056 7.311708 0.309017
vt 0.500000 1.000000
vt 0.975528 0.654509
vt 0.793893 0.095492
vt 0.206107 0.095491
vt 0.024472 0.654508
vt 0.975528 0.654509
vt 0.500000 1.000000
vt 0.500000 1.000000
vt 0.975528 0.654509
vt 0.793893 0.095492
vt 0.206107 0.095491
vt 0.024472 0.654508
vt 0.024472 0.654508
vt 0.024472 0.654508
vt 0.500000 1.000000
vt 0.793893 0.095492
vt 0.206107 0.095491
vt 0.206107 0.095491
vt 0.206107 0.095491
vt 0.024472 0.654508
vt 0.975528 0.654509
vt 0.793893 0.095492
vt 0.793893 0.095492
vt 0.793893 0.095492
vt 0.206107 0.095491
vt 0.500000 1.000000
vt 0.975528 0.654509
vt 0.975528 0.654509
vt 0.975528 0.654509
vt 0.793893 0.095492
vt 0.024472 0.654508
vt 0.500000 1.000000
vt 0.500000 1.000000
vt 0.500000 1.000000
vt 0.975528 0.654509
vt 0.206107 0.095491
vt 0.024472 0.654508
vt 0.793893 0.095492
vt 0.975528 0.654509
vt 0.793893 0.095492
vt 0.206107 0.095491
vt 0.024472 0.654508
vt 0.500000 1.000000
vt 0.500000 1.000000
vt 0.975528 0.654509
vt 0.206107 0.095491
vt 0.024472 0.654508
vt 0.793893 0.095492
vt 0.975528 0.654509
vt 0.793893 0.095492
vt 0.206107 0.095491
vt 0.024472 0.654508
vt 0.500000 1.000000
vt 0.024472 0.654508
vt 0.206107 0.095491
vn 0.0000 -1.0000 0.0000
vn 0.0000 0.0000 1.0000
vn -0.5878 0.0000 0.8090
vn -0.0000 0.0000 -1.0000
vn 0.5878 0.0000 0.8090
vn -0.9511 0.0000 -0.3090
vn 0.9511 0.0000 -0.3090
vn 0.0000 1.0000 -0.0000
usemtl None
s off
f 1/1/1 5/2/1 4/3/1 3/4/1 2/5/1
f 10/6/2 6/7/2 11/8/2 15/9/2
f 5/2/3 1/1/3 6/7/3 10/6/3
f 3/4/4 4/3/4 9/10/4 8/11/4
f 1/1/5 2/5/5 7/12/5 6/7/5
f 4/3/6 5/2/6 10/6/6 9/10/6
f 2/5/7 3/4/7 8/11/7 7/12/7
f 11/8/5 12/13/5 17/14/5 16/15/5
f 8/11/2 9/10/2 14/16/2 13/17/2
f 6/7/2 7/12/2 12/13/2 11/8/2
f 9/10/2 10/6/2 15/9/2 14/16/2
f 7/12/2 8/11/2 13/17/2 12/13/2
f 17/14/7 18/18/7 23/19/7 22/20/7
f 14/16/6 15/9/6 20/21/6 19/22/6
f 12/13/7 13/17/7 18/18/7 17/14/7
f 15/9/3 11/8/3 16/15/3 20/21/3
f 13/17/4 14/16/4 19/22/4 18/18/4
f 23/19/4 24/23/4 29/24/4 28/25/4
f 20/21/3 16/15/3 21/26/3 25/27/3
f 18/18/4 19/22/4 24/23/4 23/19/4
f 16/15/5 17/14/5 22/20/5 21/26/5
f 19/22/6 20/21/6 25/27/6 24/23/6
f 29/24/6 30/28/6 35/29/6 34/30/6
f 21/26/5 22/20/5 27/31/5 26/32/5
f 24/23/6 25/27/6 30/28/6 29/24/6
f 22/20/7 23/19/7 28/25/7 27/31/7
f 25/27/3 21/26/3 26/32/3 30/28/3
f 35/29/3 31/33/3 36/34/3 40/35/3
f 27/31/7 28/25/7 33/36/7 32/37/7
f 30/28/3 26/32/3 31/33/3 35/29/3
f 28/25/4 29/24/4 34/30/4 33/36/4
f 26/32/5 27/31/5 32/37/5 31/33/5
f 39/38/6 40/35/6 45/39/6 44/40/6
f 33/36/4 34/30/4 39/38/4 38/41/4
f 31/33/5 32/37/5 37/42/5 36/34/5
f 34/30/6 35/29/6 40/35/6 39/38/6
f 32/37/7 33/36/7 38/41/7 37/42/7
f 45/39/3 41/43/3 46/44/3 50/45/3
f 37/42/7 38/41/7 43/46/7 42/47/7
f 40/35/3 36/34/3 41/43/3 45/39/3
f 38/41/4 39/38/4 44/40/4 43/46/4
f 36/34/5 37/42/5 42/47/5 41/43/5
f 49/48/6 50/45/6 55/49/6 54/50/6
f 43/46/4 44/40/4 49/48/4 48/51/4
f 41/43/5 42/47/5 47/52/5 46/44/5
f 44/40/6 45/39/6 50/45/6 49/48/6
f 42/47/7 43/46/7 48/51/7 47/52/7
f 51/53/8 52/54/8 53/55/8 54/50/8 55/49/8
f 47/52/7 48/51/7 53/55/7 52/54/7
f 50/45/3 46/44/3 51/53/3 55/49/3
f 48/51/4 49/48/4 54/50/4 53/55/4
f 46/44/5 47/52/5 52/54/5 51/53/5
